# xmcd
#
# Track frame offsets:
#	150
#	10214
#	24641
#	38257
#	50797
#	61580
#	77890
#	93777
#	108371
#	120063
#	132642
#	145701
#	157170
#	174381
#	189541
#	202264
#	214042
#	236173
#	248416
#
# Disc length: 3493 seconds
#
# Revision: 0
# Processed by: cddbd v1.5.2PL0 Copyright (c) Steve Scherf et al.
# Submitted via: EasyCDDAExtractor 15.3.0.1
#
DISCID=fa0da313
DTITLE=Lena Zavaroni - Singles 1974-1981
DYEAR=1981
DGENRE=Englanti Pop
TTITLE0=01. Hey Hey What Do You Say 1975
TTITLE1=02. Jump Down Jimmy 1980
TTITLE2=03. Little Things Mean Alot 1979
TTITLE3=04. Out Of Your Head 1978
TTITLE4=05. (You've Got) Personality 1974
TTITLE5=06. Ready For Love 1980
TTITLE6=07. Rescue Me 1981
TTITLE7=08. Roses and Rainbows 1981
TTITLE8=09. Schools Out 1974
TTITLE9=10. Smile 1975
TTITLE10=11. Some of These Days 1976
TTITLE11=12. Somethin' 'Bout You Baby I Like 1976
TTITLE12=13. Somewhere South of Macon 1979
TTITLE13=14. Will He Kiss Me Tonight 1980
TTITLE14=15. You're Breaking My Heart 1974
TTITLE15=16. You’re Never Too Old To Be Young 1974
TTITLE16=17. Ma (He's Making Eyes at Me 1974 In Japanese)
TTITLE17=18. Here You Come Again 1977
TTITLE18=19. You're Apart Of Me 1980
EXTD=
EXTT0=
EXTT1=
EXTT2=
EXTT3=
EXTT4=
EXTT5=
EXTT6=
EXTT7=
EXTT8=
EXTT9=
EXTT10=
EXTT11=
EXTT12=
EXTT13=
EXTT14=
EXTT15=
EXTT16=
EXTT17=
EXTT18=
PLAYORDER=
